<svg width="163" height="26" viewBox="0 0 163 26" fill="none" xmlns="http://www.w3.org/2000/svg">
<path d="M14.7139 10.17C14.7379 9.186 14.6359 8.256 14.4079 7.38C14.1799 6.492 13.7599 5.772 13.1479 5.22C12.5479 4.668 11.7019 4.392 10.6099 4.392C9.01392 4.392 7.86792 5.124 7.17192 6.588C6.47592 8.052 6.12792 10.182 6.12792 12.978C6.12792 15.594 6.57192 17.568 7.45992 18.9C8.34792 20.22 9.59592 20.88 11.2039 20.88C12.4279 20.88 13.5439 20.622 14.5519 20.106C15.5719 19.578 16.5139 18.99 17.3779 18.342C17.9179 18.702 18.4399 19.224 18.9439 19.908C19.4599 20.58 19.7839 21.24 19.9159 21.888C19.2199 22.56 18.3679 23.184 17.3599 23.76C16.3519 24.336 15.2359 24.798 14.0119 25.146C12.7879 25.494 11.5219 25.668 10.2139 25.668C8.34192 25.668 6.76992 25.302 5.49792 24.57C4.23792 23.838 3.22992 22.86 2.47392 21.636C1.71792 20.412 1.17792 19.05 0.85392 17.55C0.52992 16.038 0.36792 14.502 0.36792 12.942C0.36792 9.93 0.84192 7.47 1.78992 5.562C2.73792 3.654 3.99792 2.25 5.56992 1.35C7.15392 0.45 8.89392 0 10.7899 0C12.6379 0 14.2459 0.336 15.6139 1.008C16.9939 1.668 18.0619 2.562 18.8179 3.69C19.5739 4.806 19.9519 6.054 19.9519 7.434C19.9519 8.49 19.6759 9.264 19.1239 9.756C18.5839 10.236 17.8159 10.476 16.8199 10.476C16.4239 10.476 16.0579 10.446 15.7219 10.386C15.3979 10.326 15.0619 10.254 14.7139 10.17Z" fill="#6058EA"/>
<path d="M40.2643 11.34C40.2643 12.24 40.0543 13.056 39.6343 13.788C39.2263 14.508 38.7043 15.102 38.0683 15.57C37.4443 16.026 36.8083 16.326 36.1603 16.47C36.7963 16.698 37.3243 17.028 37.7443 17.46C38.1763 17.892 38.5423 18.456 38.8423 19.152L39.8323 21.42C40.0483 21.9 40.2943 22.35 40.5703 22.77C40.8463 23.178 41.1463 23.526 41.4703 23.814C41.1343 24.234 40.6303 24.618 39.9583 24.966C39.2983 25.302 38.5783 25.47 37.7983 25.47C37.0183 25.47 36.3943 25.284 35.9263 24.912C35.4583 24.528 35.0383 23.916 34.6663 23.076L33.0643 19.404C32.8003 18.804 32.4763 18.426 32.0923 18.27C31.7203 18.114 31.2223 18.036 30.5983 18.036H29.6803V25.146C29.2243 25.23 28.7503 25.284 28.2583 25.308C27.7783 25.332 27.3643 25.344 27.0163 25.344C26.6923 25.344 26.2663 25.332 25.7383 25.308C25.2103 25.284 24.7303 25.23 24.2983 25.146V5.508L24.5143 5.292C25.9303 5.256 27.2683 5.226 28.5283 5.202C29.7883 5.178 31.0423 5.166 32.2903 5.166C33.7423 5.166 35.0683 5.358 36.2683 5.742C37.4803 6.126 38.4463 6.768 39.1663 7.668C39.8983 8.568 40.2643 9.792 40.2643 11.34ZM29.6803 9.072V13.95C30.1243 13.938 30.5383 13.932 30.9223 13.932C31.3183 13.92 31.6123 13.914 31.8043 13.914C32.9443 13.914 33.7123 13.668 34.1083 13.176C34.5163 12.672 34.7203 12.096 34.7203 11.448C34.7203 10.824 34.5163 10.278 34.1083 9.81C33.7123 9.342 33.0223 9.108 32.0383 9.108C31.6063 9.108 31.2163 9.102 30.8683 9.09C30.5203 9.078 30.1243 9.072 29.6803 9.072Z" fill="#6058EA"/>
<path d="M55.0619 5.364C55.4699 5.268 55.8779 5.208 56.2859 5.184C56.7059 5.148 57.0899 5.13 57.4379 5.13C57.9059 5.13 58.3559 5.16 58.7879 5.22C59.2319 5.268 59.6219 5.346 59.9579 5.454L60.1919 5.724L54.0719 19.512V25.146C53.6399 25.23 53.1899 25.284 52.7219 25.308C52.2539 25.332 51.8399 25.344 51.4799 25.344C51.1559 25.344 50.7299 25.332 50.2019 25.308C49.6739 25.284 49.1939 25.23 48.7619 25.146V19.368L42.6779 5.814C43.1819 5.574 43.7279 5.382 44.3159 5.238C44.9039 5.094 45.4379 5.022 45.9179 5.022C46.6619 5.022 47.2679 5.178 47.7359 5.49C48.2039 5.79 48.5819 6.318 48.8699 7.074L50.2379 10.566C50.5499 11.406 50.8019 12.12 50.9939 12.708C51.1859 13.284 51.3539 13.932 51.4979 14.652H51.7139C52.1699 12.996 52.6679 11.466 53.2079 10.062L55.0619 5.364Z" fill="#6058EA"/>
<path d="M79.5308 12.078C79.5308 13.626 79.1828 14.91 78.4868 15.93C77.7908 16.938 76.8368 17.694 75.6248 18.198C74.4128 18.69 73.0328 18.936 71.4848 18.936H69.3788V25.146C68.9228 25.23 68.4548 25.284 67.9748 25.308C67.4948 25.332 67.0748 25.344 66.7148 25.344C66.3908 25.344 65.9528 25.332 65.4008 25.308C64.8608 25.284 64.3748 25.23 63.9428 25.146V5.508L64.1588 5.292C65.1428 5.28 66.3008 5.256 67.6328 5.22C68.9648 5.184 70.2488 5.166 71.4848 5.166C73.0328 5.166 74.4128 5.406 75.6248 5.886C76.8368 6.366 77.7908 7.116 78.4868 8.136C79.1828 9.144 79.5308 10.458 79.5308 12.078ZM69.3788 9.18V14.922C69.7388 14.91 70.0688 14.904 70.3688 14.904C70.6688 14.904 70.8908 14.904 71.0348 14.904C71.8748 14.904 72.5048 14.748 72.9248 14.436C73.3448 14.124 73.6208 13.752 73.7528 13.32C73.8968 12.876 73.9688 12.45 73.9688 12.042C73.9688 11.658 73.8968 11.25 73.7528 10.818C73.6208 10.374 73.3448 9.996 72.9248 9.684C72.5048 9.372 71.8748 9.216 71.0348 9.216C70.7228 9.216 70.4768 9.216 70.2968 9.216C70.1168 9.216 69.8108 9.204 69.3788 9.18Z" fill="#6058EA"/>
<path d="M86.8598 11.88C86.8598 11.496 86.8658 11.142 86.8778 10.818C86.8898 10.482 86.8958 10.11 86.8958 9.702C86.6438 9.702 86.3018 9.708 85.8698 9.72C85.4378 9.732 85.0958 9.738 84.8438 9.738H81.4418C81.3578 9.33 81.3038 8.946 81.2798 8.586C81.2558 8.226 81.2438 7.896 81.2438 7.596C81.2438 7.296 81.2558 6.942 81.2798 6.534C81.3038 6.126 81.3578 5.724 81.4418 5.328H97.5518C97.6358 5.64 97.6958 5.994 97.7318 6.39C97.7798 6.774 97.8038 7.092 97.8038 7.344C97.8038 8.112 97.5938 8.706 97.1738 9.126C96.7658 9.534 96.0758 9.738 95.1038 9.738H94.2038C93.9638 9.738 93.6338 9.732 93.2138 9.72C92.8058 9.708 92.4878 9.702 92.2598 9.702C92.2598 10.11 92.2658 10.482 92.2778 10.818C92.2898 11.142 92.2958 11.496 92.2958 11.88V25.146C91.9718 25.218 91.5338 25.266 90.9818 25.29C90.4298 25.326 89.9618 25.344 89.5778 25.344C89.2058 25.344 88.7498 25.326 88.2098 25.29C87.6818 25.266 87.2318 25.218 86.8598 25.146V11.88Z" fill="#6058EA"/>
<path d="M112.316 19.836C112.316 19.224 112.328 18.624 112.352 18.036C112.1 18.036 111.848 18.036 111.596 18.036C111.344 18.036 111.098 18.036 110.858 18.036C109.238 18.036 108.428 17.274 108.428 15.75C108.428 15.45 108.452 15.096 108.5 14.688C108.56 14.268 108.626 13.944 108.698 13.716C109.562 13.68 110.414 13.662 111.254 13.662C112.094 13.65 112.946 13.644 113.81 13.644C115.166 13.644 116.09 13.902 116.582 14.418C117.074 14.922 117.32 15.642 117.32 16.578V24.498C116.684 24.714 115.88 24.912 114.908 25.092C113.948 25.26 112.946 25.398 111.902 25.506C110.858 25.614 109.904 25.668 109.04 25.668C106.664 25.668 104.75 25.23 103.298 24.354C101.858 23.466 100.808 22.26 100.148 20.736C99.5002 19.2 99.1762 17.466 99.1762 15.534C99.1762 12.978 99.6502 10.914 100.598 9.342C101.546 7.77 102.8 6.624 104.36 5.904C105.932 5.172 107.642 4.806 109.49 4.806C110.882 4.806 112.232 4.95 113.54 5.238C114.848 5.526 116.006 5.916 117.014 6.408C116.942 7.152 116.708 7.926 116.312 8.73C115.928 9.534 115.49 10.146 114.998 10.566C113.186 9.63 111.428 9.162 109.724 9.162C106.388 9.162 104.72 11.268 104.72 15.48C104.72 17.568 105.146 19.116 105.998 20.124C106.862 21.132 108.176 21.636 109.94 21.636C110.348 21.636 110.75 21.618 111.146 21.582C111.542 21.534 111.932 21.48 112.316 21.42V19.836Z" fill="#6058EA"/>
<path d="M120.967 15.264C120.967 12.072 121.789 9.534 123.433 7.65C125.089 5.754 127.495 4.806 130.651 4.806C133.867 4.806 136.291 5.748 137.923 7.632C139.567 9.516 140.389 12.06 140.389 15.264C140.389 18.492 139.567 21.036 137.923 22.896C136.279 24.744 133.855 25.668 130.651 25.668C127.447 25.668 125.029 24.732 123.397 22.86C121.777 20.988 120.967 18.456 120.967 15.264ZM126.529 15.264C126.529 15.972 126.577 16.698 126.673 17.442C126.769 18.186 126.961 18.882 127.249 19.53C127.537 20.166 127.957 20.682 128.509 21.078C129.061 21.474 129.787 21.672 130.687 21.672C131.587 21.672 132.313 21.474 132.865 21.078C133.417 20.682 133.831 20.166 134.107 19.53C134.395 18.882 134.587 18.186 134.683 17.442C134.779 16.698 134.827 15.972 134.827 15.264C134.827 14.556 134.779 13.824 134.683 13.068C134.587 12.312 134.395 11.616 134.107 10.98C133.831 10.332 133.417 9.81 132.865 9.414C132.313 9.006 131.587 8.802 130.687 8.802C129.787 8.802 129.061 9.006 128.509 9.414C127.957 9.81 127.537 10.332 127.249 10.98C126.961 11.616 126.769 12.312 126.673 13.068C126.577 13.824 126.529 14.556 126.529 15.264Z" fill="#6058EA"/>
<path d="M151.759 15.804C151.627 15.54 151.429 15.108 151.165 14.508C150.901 13.896 150.637 13.284 150.373 12.672C150.109 12.06 149.917 11.616 149.797 11.34L149.653 11.394C149.701 12.318 149.749 13.314 149.797 14.382C149.845 15.45 149.881 16.434 149.905 17.334C149.941 18.222 149.959 18.87 149.959 19.278V25.146C149.515 25.23 149.083 25.284 148.663 25.308C148.243 25.332 147.859 25.344 147.511 25.344C147.175 25.344 146.773 25.332 146.305 25.308C145.837 25.284 145.387 25.23 144.955 25.146V5.454C145.387 5.358 145.915 5.28 146.539 5.22C147.163 5.16 147.655 5.13 148.015 5.13C148.375 5.13 148.873 5.142 149.509 5.166C150.157 5.178 150.697 5.232 151.129 5.328L155.647 14.652C155.755 14.832 155.905 15.138 156.097 15.57C156.289 16.002 156.499 16.476 156.727 16.992C156.955 17.508 157.165 17.994 157.357 18.45C157.561 18.894 157.711 19.224 157.807 19.44L157.969 19.404C157.921 18.624 157.855 17.724 157.771 16.704C157.699 15.672 157.633 14.676 157.573 13.716C157.525 12.744 157.501 11.964 157.501 11.376V8.082C157.501 6.87 157.759 6.072 158.275 5.688C158.791 5.292 159.571 5.094 160.615 5.094H162.415L162.613 5.346V25.056C162.169 25.152 161.635 25.224 161.011 25.272C160.387 25.32 159.901 25.344 159.553 25.344C159.205 25.344 158.689 25.332 158.005 25.308C157.321 25.296 156.769 25.242 156.349 25.146L151.759 15.804Z" fill="#6058EA"/>
</svg>
